<svg width="48" height="48" viewBox="0 0 48 48" fill="none" xmlns="http://www.w3.org/2000/svg">
<path d="M47.906 23.8165C47.906 23.2678 47.6363 22.7855 47.2258 22.4829L47.2345 22.468L41.4536 19.1306L44.7812 13.3671L44.77 13.3602C44.8751 13.1227 44.9228 12.8637 44.9091 12.6044C44.8954 12.345 44.8208 12.0924 44.6913 11.8673C44.5608 11.6423 44.3791 11.4513 44.161 11.3098C43.9428 11.1682 43.6944 11.0801 43.4358 11.0526V11.0365H36.7596V4.37955H36.746C36.7182 4.12128 36.6299 3.8732 36.4884 3.65539C36.3469 3.43759 36.156 3.25619 35.9313 3.12591C35.7058 2.996 35.4528 2.92126 35.1929 2.90779C34.933 2.89433 34.6736 2.94251 34.4358 3.04841L34.4278 3.03415L28.5496 6.42803L25.2946 0.789746L25.2828 0.796566C25.1295 0.586839 24.9291 0.416145 24.6976 0.298306C24.4661 0.180467 24.2101 0.118797 23.9504 0.118286C23.4017 0.118286 22.9187 0.387986 22.6168 0.798426L22.6019 0.789746L19.293 6.52103L13.5952 3.23131L13.5883 3.24309C13.3508 3.13798 13.0918 3.09034 12.8325 3.10402C12.5731 3.1177 12.3205 3.19232 12.0954 3.32183C11.8703 3.45218 11.6791 3.63383 11.5375 3.85199C11.3958 4.07015 11.3076 4.31866 11.2801 4.57733H11.2633V11.1952H4.6839V11.2082C4.42564 11.236 4.17756 11.3242 3.95975 11.4658C3.74195 11.6073 3.56055 11.7982 3.43027 12.0229C3.3007 12.2483 3.22611 12.501 3.21253 12.7607C3.19896 13.0203 3.24679 13.2794 3.35215 13.5171L3.33789 13.5258L6.59041 19.1597L0.766126 22.5226L0.772945 22.5344C0.563218 22.6876 0.392525 22.8881 0.274686 23.1196C0.156847 23.3511 0.095176 23.607 0.0946655 23.8668C0.0946655 24.4155 0.364366 24.8984 0.774806 25.2004L0.766126 25.2153L6.54701 28.5527L3.21947 34.3162L3.23063 34.3224C3.12552 34.56 3.07788 34.8189 3.09156 35.0783C3.10524 35.3377 3.17986 35.5902 3.30937 35.8154C3.43983 36.0404 3.62152 36.2314 3.83967 36.3729C4.05782 36.5145 4.30627 36.6026 4.56487 36.6301V36.6468H11.2404V43.3031H11.254C11.3111 43.8091 11.5944 44.2827 12.0687 44.5568C12.2943 44.6866 12.5473 44.7612 12.8072 44.7747C13.067 44.7881 13.3264 44.74 13.5642 44.6343L13.5722 44.6485L19.4504 41.2547L22.7054 46.8929L22.7172 46.8861C22.8705 47.0959 23.0709 47.2665 23.3024 47.3844C23.5339 47.5022 23.7899 47.5639 24.0496 47.5644C24.5983 47.5644 25.0813 47.2947 25.3832 46.8849L25.3975 46.8929L28.7064 41.1617L34.4048 44.4514L34.4117 44.4396C34.6492 44.5447 34.9082 44.5924 35.1676 44.5787C35.4269 44.565 35.6795 44.4904 35.9046 44.3609C36.1297 44.2305 36.3209 44.0489 36.4626 43.8307C36.6042 43.6125 36.6924 43.364 36.7199 43.1054H36.7367V36.4881H43.3167V36.4751C43.575 36.4473 43.8231 36.3591 44.0409 36.2175C44.2587 36.076 44.4401 35.8851 44.5704 35.6604C44.6999 35.4349 44.7745 35.182 44.788 34.9223C44.8016 34.6626 44.7538 34.4034 44.6485 34.1656L44.6627 34.1575L41.4102 28.5236L47.2345 25.1607L47.2277 25.1489C47.4375 24.9958 47.6082 24.7953 47.7261 24.5638C47.8439 24.3323 47.9055 24.0763 47.906 23.8165Z" fill="#3F452E"/>
</svg>
